<?xml version="1.0" encoding="iso-8859-1"?>
<!-- Uploaded to: SVG Repo, www.svgrepo.com, Generator: SVG Repo Mixer Tools -->
<svg fill="#000000" height="800px" width="800px" version="1.1" id="Layer_1" xmlns="http://www.w3.org/2000/svg" xmlns:xlink="http://www.w3.org/1999/xlink" 
	 viewBox="0 0 512 512" xml:space="preserve">
<g>
	<g>
		<path d="M512,226.392c0-47.572-34.116-87.492-79.165-96.47c-5.229-43.433-39.425-79.358-84.249-85.405
			c-46.82-57.806-135.788-60.388-185.174,0c-44.843,6.052-79.019,41.98-84.247,85.405C34.116,138.901,0,178.821,0,226.392
			c0,54.24,44.126,98.367,98.367,98.367h15.732c-22.298,29.664-35.529,66.512-35.529,106.395v61.323
			c0,10.678,8.657,19.335,19.335,19.335h316.189c10.678,0,19.335-8.657,19.335-19.335v-61.323c0-39.883-13.23-76.731-35.529-106.395
			h15.732C467.874,324.759,512,280.632,512,226.392z M285.867,44.692c-19.71,36.837-63.622,51.33-100.667,36.515
			C204.708,45.153,248.011,29.494,285.867,44.692z M175.57,118.874c52.942,18.607,112.255-2.091,141.765-51.479
			c43.69,51.488,7.669,132.408-61.334,132.408c-44.356,0-80.442-36.087-80.442-80.442
			C175.557,119.199,175.569,119.038,175.57,118.874z M394.76,473.141H117.24v-41.988c0-40.278,17.257-76.597,44.758-101.97
			l33.934,33.934c33.119,33.121,87.014,33.123,120.135,0l33.934-33.934c27.501,25.371,44.758,61.691,44.758,101.97V473.141z
			 M194.364,306.862c38.585-19.214,84.641-19.232,123.274,0l-28.913,28.912c-18.046,18.043-47.403,18.043-65.449,0L194.364,306.862z
			 M358.165,286.088c-29.969-21.125-65.416-32.349-102.118-32.369c-0.022,0-0.036,0-0.057,0c-35.316,0-71.127,10.486-102.157,32.369
			H98.367c-32.918,0.001-59.697-26.778-59.697-59.696c0-32.753,26.647-59.528,59.401-59.687c11.157-0.055,19.95-9.522,19.198-20.641
			c-1.361-20.095,7.147-38.47,22.006-50.538c-15.08,74.24,41.953,142.946,116.726,142.946c75.531,0,131.65-69.522,116.725-142.948
			c14.773,11.998,23.376,30.351,22.006,50.535c-0.755,11.133,8.051,20.589,19.196,20.645c32.755,0.159,59.403,26.935,59.403,59.687
			c0,32.917-26.779,59.697-59.697,59.697H358.165z"/>
	</g>
</g>
</svg>